<svg xmlns="http://www.w3.org/2000/svg" width="24" height="24" viewBox="0 0 24 24" fill="none">
  <path d="M2.57146 16.2857C3.51824 16.2857 4.28575 15.1344 4.28575 13.7143C4.28575 12.2941 3.51824 11.1428 2.57146 11.1428C1.62469 11.1428 0.857178 12.2941 0.857178 13.7143C0.857178 15.1344 1.62469 16.2857 2.57146 16.2857Z" stroke="#DEE2E6" stroke-width="1.71429" stroke-linecap="round" stroke-linejoin="round"/>
  <path d="M7.71429 8.57145C8.66106 8.57145 9.42857 7.42018 9.42857 6.00002C9.42857 4.57986 8.66106 3.42859 7.71429 3.42859C6.76751 3.42859 6 4.57986 6 6.00002C6 7.42018 6.76751 8.57145 7.71429 8.57145Z" stroke="#DEE2E6" stroke-width="1.71429" stroke-linecap="round" stroke-linejoin="round"/>
  <path d="M16.2858 8.57145C17.2325 8.57145 18 7.42018 18 6.00002C18 4.57986 17.2325 3.42859 16.2858 3.42859C15.339 3.42859 14.5715 4.57986 14.5715 6.00002C14.5715 7.42018 15.339 8.57145 16.2858 8.57145Z" stroke="#DEE2E6" stroke-width="1.71429" stroke-linecap="round" stroke-linejoin="round"/>
  <path d="M21.4286 16.2857C22.3754 16.2857 23.1429 15.1344 23.1429 13.7143C23.1429 12.2941 22.3754 11.1428 21.4286 11.1428C20.4818 11.1428 19.7143 12.2941 19.7143 13.7143C19.7143 15.1344 20.4818 16.2857 21.4286 16.2857Z" stroke="#DEE2E6" stroke-width="1.71429" stroke-linecap="round" stroke-linejoin="round"/>
  <path d="M17.1429 17.1428C17.1429 19.5085 14.3657 20.5714 12 20.5714C9.63432 20.5714 6.85718 19.5085 6.85718 17.1428C6.85718 14.7771 8.57146 11.1428 12 11.1428C15.4286 11.1428 17.1429 14.7771 17.1429 17.1428Z" stroke="#DEE2E6" stroke-width="1.71429" stroke-linecap="round" stroke-linejoin="round"/>
</svg>