<svg xmlns="http://www.w3.org/2000/svg" width="24" height="24" viewBox="0 0 24 24" fill="none">
  <path d="M16.2493 14.264C15.0823 13.2267 13.5752 12.6537 12.0139 12.6537C10.4525 12.6537 8.94545 13.2267 7.77849 14.264C7.67988 14.3493 7.59921 14.4534 7.54116 14.5702C7.48311 14.6869 7.44883 14.8141 7.44033 14.9442C7.43182 15.0743 7.44926 15.2048 7.49161 15.3282C7.53397 15.4515 7.60041 15.5652 7.68707 15.6626C7.77373 15.76 7.87889 15.8393 7.99643 15.8957C8.11398 15.9522 8.24157 15.9847 8.37179 15.9915C8.50202 15.9982 8.63228 15.979 8.75502 15.9349C8.87776 15.8909 8.99053 15.8229 9.08677 15.735C9.89331 15.0181 10.9348 14.6222 12.0139 14.6222C13.0929 14.6222 14.1345 15.0181 14.941 15.735C15.1362 15.9084 15.3923 15.9973 15.653 15.9819C15.9137 15.9666 16.1576 15.8483 16.3311 15.6532C16.5046 15.458 16.5934 15.2019 16.5781 14.9412C16.5627 14.6805 16.4445 14.4366 16.2493 14.2631V14.264Z" fill="#DEE2E6"/>
  <path d="M12.0132 8.61097C9.37022 8.60733 6.8254 9.61184 4.89753 11.4197C4.79992 11.5072 4.72075 11.6132 4.66466 11.7316C4.60858 11.8501 4.5767 11.9785 4.57091 12.1094C4.56512 12.2403 4.58552 12.3711 4.63093 12.494C4.67633 12.6169 4.74582 12.7296 4.83533 12.8253C4.92483 12.921 5.03255 12.9979 5.15216 13.0514C5.27176 13.105 5.40086 13.1341 5.53187 13.1371C5.66288 13.1401 5.79317 13.1169 5.91509 13.0688C6.03702 13.0208 6.14813 12.9489 6.2419 12.8574C7.80728 11.3939 9.8702 10.5797 12.0132 10.5797C14.1561 10.5797 16.219 11.3939 17.7844 12.8574C17.8782 12.9489 17.9893 13.0208 18.1112 13.0688C18.2331 13.1169 18.3634 13.1401 18.4944 13.1371C18.6254 13.1341 18.7545 13.105 18.8742 13.0514C18.9938 12.9979 19.1015 12.921 19.191 12.8253C19.2805 12.7296 19.35 12.6169 19.3954 12.494C19.4408 12.3711 19.4612 12.2403 19.4554 12.1094C19.4496 11.9785 19.4177 11.8501 19.3616 11.7316C19.3056 11.6132 19.2264 11.5072 19.1288 11.4197C17.2009 9.61184 14.6561 8.60733 12.0132 8.61097Z" fill="#DEE2E6"/>
  <path d="M21.6563 8.24341C19.0024 5.87545 15.5699 4.56677 12.0132 4.56677C8.45641 4.56677 5.02398 5.87545 2.37005 8.24341C2.2703 8.32861 2.1886 8.43288 2.12972 8.55011C2.07085 8.66734 2.03601 8.79515 2.02723 8.92603C2.01845 9.05691 2.03593 9.18823 2.07862 9.31227C2.12132 9.43631 2.18837 9.55056 2.27585 9.64831C2.36332 9.74606 2.46945 9.82535 2.588 9.8815C2.70655 9.93766 2.83513 9.96955 2.96618 9.97531C3.09724 9.98107 3.22812 9.96058 3.35114 9.91504C3.47416 9.8695 3.58683 9.79983 3.68255 9.71013C5.9755 7.66515 8.94055 6.53503 12.0129 6.53503C15.0853 6.53503 18.0504 7.66515 20.3433 9.71013C20.5379 9.88417 20.7937 9.97378 21.0544 9.95923C21.3151 9.94468 21.5594 9.82717 21.7334 9.63255C21.9075 9.43792 21.9971 9.18213 21.9825 8.92144C21.968 8.66075 21.8504 8.41652 21.6558 8.24247L21.6563 8.24341Z" fill="#DEE2E6"/>
  <path d="M12.0131 19.941C12.8415 19.941 13.5131 19.2695 13.5131 18.441C13.5131 17.6126 12.8415 16.941 12.0131 16.941C11.1847 16.941 10.5131 17.6126 10.5131 18.441C10.5131 19.2695 11.1847 19.941 12.0131 19.941Z" fill="#DEE2E6"/>
</svg>